<?xml version="1.0" encoding="utf-8"?>
<!-- Svg Vector Icons : http://www.sfont.cn -->
<!DOCTYPE svg PUBLIC "-//W3C//DTD SVG 1.1//EN" "http://www.w3.org/Graphics/SVG/1.1/DTD/svg11.dtd">
<svg version="1.1" xmlns="http://www.w3.org/2000/svg" xmlns:xlink="http://www.w3.org/1999/xlink" x="0px" y="0px" viewBox="0 0 1000 1000" enable-background="new 0 0 1000 1000" xml:space="preserve">
<metadata> Svg Vector Icons : http://www.sfont.cn </metadata>
<g><path d="M867.3,990H132.8C64.9,990,10,935,10,867.2V193.7c0-67.8,54.9-122.8,122.8-122.8h123v2.2h-63.1v91.8c0,50.7,41.1,91.7,91.7,91.7c50.7,0,93.6-41.1,93.6-91.7V73.1h-61.1v-2.2h366.9v2.2h-63.1v91.8c0,50.7,41.1,91.7,91.7,91.7c50.7,0,93.7-41.1,93.7-91.7V73.1H745v-2.2h122.2c67.7,0,122.8,55,122.8,122.8v673.5C990,935,935,990,867.3,990L867.3,990z M888.8,315.9H114.1v572.9h774.7V315.9L888.8,315.9z M308.3,393.5h42.6v42.6v42.6v42.6h-42.6h-42.6H223v-42.6v-42.6v-42.6h42.6H308.3L308.3,393.5z M308.3,606.5h42.6v42.6v42.6v42.6h-42.6h-42.6H223v-42.6v-42.6v-42.6h42.6H308.3L308.3,606.5z M521.3,393.5h42.6v42.6v42.6v42.6h-42.6h-42.6h-42.6v-42.6v-42.6v-42.6h42.6H521.3L521.3,393.5z M521.3,606.5h42.6v42.6v42.6v42.6h-42.6h-42.6h-42.6v-42.6v-42.6v-42.6h42.6H521.3L521.3,606.5z M734.3,393.5H777v42.6v42.6v42.6h-42.6h-42.6h-42.6v-42.6v-42.6v-42.6h42.6H734.3L734.3,393.5z M734.3,606.5H777v42.6v42.6v42.6h-42.6h-42.6h-42.6v-42.6v-42.6v-42.6h42.6H734.3L734.3,606.5z M745,191.6h-61.2V73.1H745V191.6L745,191.6z M316.9,191.6h-61.1V73.1h61.1V191.6L316.9,191.6z M255.8,10h61.1v60.9h-61.1V10L255.8,10z M683.8,10H745v60.9h-61.2V10L683.8,10z"/></g>
</svg>